<?xml version="1.0" encoding="iso-8859-1"?>
<!-- Generator: Adobe Illustrator 23.0.2, SVG Export Plug-In . SVG Version: 6.00 Build 0)  -->
<svg version="1.1" xmlns="http://www.w3.org/2000/svg" xmlns:xlink="http://www.w3.org/1999/xlink" x="0px" y="0px"
	 viewBox="0 0 500 421" style="enable-background:new 0 0 500 421;" xml:space="preserve">
<g id="BACKGROUND">
</g>
<g id="DESIGNED_BY_FREEPIK">
	<g>
		<path style="fill:#CCE9FF;" d="M12.855,216.953l463.939-5.367c0,0,36.5-3.163,17.947,25.99
			c-18.551,29.158-117.209,40.659-173.36,65.049c-57.992,25.186-95.07-12.01-154.262-14.777
			c-59.189-2.771-130.165-20.141-147.295-38.861C-3.477,223.521-6.801,217.767,12.855,216.953z"/>
		<g>
			<g>
				<g>
					<path style="fill:#2A94F4;" d="M308.145,237.846c-7.179,0.137-23.685,1.656-30.798-0.965
						c-5.183-1.916-17.258-5.403-26.032-7.21c-3.268-0.669-6.074-1.109-7.901-1.148c-4.794-0.098-9.708-4.388-13.217-7.293
						c-1.418-1.178-2.603-2.124-3.46-2.472c-0.837-0.345-1.464-0.751-1.853-1.163c-0.287-0.303-0.445-0.61-0.461-0.892
						c-0.036-0.688,0.791-1.23,2.659-1.23c0.52,0,1.055,0.024,1.597,0.067c3.258,0.242,6.736,1.096,8.692,1.039
						c2.275-0.072,8.49,5.386,9.733,5.661c0.527,0.117,2.091,0.584,4.103,0.729c2.728,0.203,6.283-0.179,9.222-2.799
						c1.536-1.371,3.742-2.979,6.074-4.557c5.365-3.63,11.4-7.104,11.535-7.18c0-0.004,0.002-0.004,0.002-0.004s0,0.004,0.003,0.009
						c0,0.001,0,0.001,0,0.003v0.006c0.003,0.008,0.008,0.019,0.013,0.032c0.069,0.184,0.348,0.907,0.868,1.715
						c0.34,0.53,0.781,1.095,1.336,1.569c0.535,0.465,1.175,0.838,1.922,1.018c0.402,0.097,1.042,0.168,1.861,0.231
						c0.156,0.013,0.317,0.022,0.486,0.035c1.006,0.069,2.222,0.125,3.565,0.191c1.078,0.053,2.237,0.111,3.43,0.185
						c5.167,0.313,10.962,0.9,13.583,2.535c1.234,0.768,2.605,1.689,3.962,2.696c0,0,0,0,0.005,0.004
						c3.499,2.6,6.905,5.776,7.581,8.401c0.074,0.289,0.115,0.57,0.12,0.844C316.845,231.632,315.324,237.708,308.145,237.846z"/>
				</g>
				<g>
					<path style="fill:#2A94F4;" d="M278.067,208.483c0.069,0.189,0.338,0.904,0.857,1.712c0.34,0.53,0.781,1.095,1.336,1.569
						c0.535,0.465,1.175,0.838,1.922,1.018c0.481,0.111,1.298,0.194,2.347,0.266l-19.262,10.371l-25.205-0.616l-9.864-1.573
						l-1.873-0.299c0,0-4.899-3.41-6.004-4.124c0.747-0.026,1.456-0.06,2.104-0.104c-0.036-0.688,0.791-1.23,2.659-1.23
						c0.52,0,1.055,0.024,1.597,0.067c1.779-1.826,10.094-9.805,10.094-9.805l39.282,2.691L278.067,208.483z"/>
				</g>
				<g>
					<path style="fill:#2A94F4;" d="M291.524,213.424c-7.197,1.986-13.207,7.435-13.207,7.435l-9.014,1.623l14.74-9.469
						c0.156,0.013,0.317,0.022,0.486,0.035c1.006,0.069,2.222,0.125,3.565,0.191C289.172,213.291,290.331,213.35,291.524,213.424z"
						/>
				</g>
				<g>
					<path style="opacity:0.8;fill:#CCE9FF;" d="M280.534,217.238c-0.297,0.071-0.612,0.155-0.937,0.241
						c-3.75,0.339-19.587,9.184-19.587,9.184c-0.026,0.013-0.026,0.013-0.026,0.013c-2.436,0.864-5.451,1.897-8.664,3.002
						c-8.055,2.731-17.34,5.844-21.543,7.616c-7.742,3.239-26.521,1.725-29.423,0.551c-2.109-0.864-3.75-4.657-4.161-7.97
						c-0.141-1.217-0.125-2.378,0.1-3.283c0.494-2.051,3.028-4.515,6.099-6.369c1.984-1.204,4.203-2.167,6.255-2.603
						c2.818-0.612,7.858-0.653,12.129-0.765c0.525-0.015,1.049-0.029,1.543-0.044c0.753-0.027,1.456-0.071,2.109-0.113
						c1.868-0.113,3.271-0.311,3.765-0.693c0.028-0.015,0.041-0.029,0.056-0.043l0.131,0.027l1.694,0.638l11.098,4.089
						c4.727,3.751,10.358,1.954,12.751,1.543c3.483-0.594,4.374-1.642,5.265-3.042c0.297-0.48,0.609-1.006,1.034-1.572
						c0.665-0.65,1.569-1.303,2.378-1.712c0-0.013,0.013-0.013,0.013-0.013c0.978-0.256,2.193-0.226,3.893-0.312
						c0.509-0.028,1.019-0.028,1.5-0.028c0.453,0,0.922-0.042,1.4-0.113c0.074-0.014,0.159-0.028,0.215-0.044h0.043
						c0.691,0.03,1.144,0.057,1.144,0.057c-0.637,0.978,0.527,0.269,0.031-0.013c6.324-2.576,9.099-0.863,9.695-0.397
						c0.054,0.043,0.097,0.073,0.113,0.099c0.013,0,0.013,0.015,0.013,0.015s0.013,0.014,0.043,0.028
						c0.041,0.043,0.113,0.083,0.184,0.17C281.609,216.133,281.78,216.941,280.534,217.238z"/>
					<path style="fill:#EDDAD3;" d="M280.703,215.214c-0.031-0.013-0.043-0.028-0.043-0.028s0-0.015-0.013-0.015
						C280.672,215.171,280.69,215.186,280.703,215.214z"/>
				</g>
				<g>
					<path style="fill:#2A94F4;" d="M259.977,226.676c-2.424,0.863-5.444,1.899-8.664,2.995c-8.052,2.74-17.333,5.857-21.538,7.623
						c-2.214,0.929-5.331,1.468-8.722,1.735c-0.013,0-0.026,0.003-0.041,0.003c-1.044,0.082-2.119,0.138-3.202,0.171
						c-0.066,0.001-0.138,0.004-0.202,0.006c-4.492,0.13-9.089-0.117-12.462-0.493c-0.008-0.003-0.018-0.003-0.031-0.006
						c-2.298-0.255-4.029-0.573-4.755-0.865c-2.117-0.856-3.755-4.661-4.164-7.967c-0.148-1.223-0.133-2.376,0.092-3.29
						c0.502-2.055,3.03-4.508,6.104-6.367c0.003-0.004,0.003-0.004,0.003-0.004c1.983-1.201,4.203-2.156,6.25-2.601
						c2.813-0.61,7.852-0.645,12.137-0.762c0.525-0.012,1.042-0.03,1.536-0.047h0.003c0.747-0.026,1.456-0.06,2.101-0.1
						c1.871-0.12,3.276-0.318,3.773-0.697c0.023-0.017,0.046-0.033,0.064-0.051l0.115,0.038l0,0l1.707,0.635l11.088,4.088
						c3.931,3.108,8.477,2.397,11.274,1.832c0.576-0.115,1.075-0.226,1.482-0.296c0.878-0.151,1.595-0.327,2.181-0.533
						L259.977,226.676z"/>
				</g>
				<g>
					<path style="fill:#0E538C;" d="M270.355,222.37c0,0,18.318-3.306,22.597-1.439c4.284,1.861,7.458,6.143,11.671,5.729
						c4.213-0.415,0.054-2.337-2.951-3.139c-3.005-0.797-5.344-4.423-13.288-4.163c-7.947,0.262-13.276,1.605-13.276,1.605
						S271.545,221.892,270.355,222.37z"/>
				</g>
				<g>
					<path style="opacity:0.8;fill:#CCE9FF;" d="M229.504,220.657c0,0-1.559-1.483-2.905-1.899
						c-1.346-0.418-3.499-2.497-1.052-3.114c3.069-0.777,8.648,1.175,10.166,1.142c1.52-0.035,4.287,0.649,6.421,2.156
						c2.14,1.507,4.773,3.694,6.46,3.652c0,0-0.107,0.408-1.213,0.371c-1.103-0.035-17.271-1.811-17.271-1.811L229.504,220.657z"/>
				</g>
				<g>
					<path style="fill:#0E538C;" d="M256.831,221.367c0,0-3.097,2.738-15.111,1.563c-12.014-1.172-17.952-3.139-24.235-0.635
						c-6.286,2.5-5.457,3.192-8.63,3.192c-3.182,0,2.001-3.938,8.768-5.11c6.765-1.174,23.544,2.07,25.477,2.07
						C245.035,222.447,252.529,223.183,256.831,221.367z"/>
				</g>
				<g>
					<path style="fill:#2A94F4;" d="M262.096,229.389c0,0-19.577,8.136-41.043,9.64c-0.013,0-0.026,0.003-0.041,0.003
						c-1.06,0.073-2.13,0.13-3.202,0.171c-0.066,0.001-0.138,0.004-0.202,0.006c-4.162,0.15-8.357,0.015-12.462-0.493
						c-0.008-0.003-0.018-0.003-0.031-0.006c0,0,35.09-12.605,47.326-16.158c1.692-0.488,2.946-0.807,3.611-0.894l0.051,0.065
						l3.872,4.953L262.096,229.389z"/>
				</g>
				<path style="fill:#EDDAD3;" d="M270.839,215.469c0.497,0.282-0.668,0.99-0.031,0.013l0.015-0.013H270.839z"/>
				<path style="fill:#EDDAD3;" d="M279.597,217.479c0.325-0.086,0.64-0.17,0.937-0.241c1.246-0.297,1.075-1.105,0.353-1.854
					C281.453,215.865,282.684,217.212,279.597,217.479z"/>
				<g>
					<g>
						<path style="fill:#F1B99E;" d="M191.681,171.593c0,0-2.905-0.328-4.914-0.664c-1.556-0.26-5.416,0.065-6.393,0.754
							c-0.978,0.688-4.067,5.498-4.656,5.789c-0.591,0.293,0.31,0.981,1.346,0.643c0,0,0.97,2.119,3.317,1.341
							c2.347-0.78,3.934-2.497,5.165-2.795c1.231-0.298,8.397-1.792,8.397-1.792S193.526,171.09,191.681,171.593z"/>
					</g>
				</g>
				<g>
					<g>
						<path style="fill:#F1B99E;" d="M245.721,209.375c0,0-2.905-0.33-4.917-0.665c-1.556-0.262-5.413,0.065-6.393,0.754
							c-0.975,0.688-4.067,5.498-4.653,5.789c-0.594,0.293,0.307,0.98,1.344,0.644c0,0,0.97,2.118,3.32,1.341
							c2.347-0.781,3.931-2.498,5.162-2.796c1.231-0.298,8.4-1.793,8.4-1.793S247.566,208.87,245.721,209.375z"/>
					</g>
				</g>
				<g>
					<path style="fill:#2A94F4;" d="M243.496,150.204c-0.358,0.239-0.722,0.492-1.083,0.756c0.02-0.221,0.028-0.339,0.028-0.339
						L243.496,150.204z"/>
					<path style="fill:#2A94F4;" d="M249.191,147.955c0,0-0.002,0.053-0.002,0.15c-0.148,0.004-0.289,0.011-0.425,0.02
						L249.191,147.955z"/>
				</g>
				<path style="fill:#0E538C;" d="M253.424,114.236c0,0,12.682-4.539,15.39,12.653c3.056,17.137,5.999,38.032,5.999,38.032
					l-13.071,2.06C261.742,166.982,264.788,123.79,253.424,114.236z"/>
				<path style="fill:#0B4870;" d="M265.346,158.385c0,0-0.865,5.797-1.103,9.975c-0.269,4.738-0.52,9.409-0.571,10.457
					c-0.097,2.128,3.12,5.757,1.968,7.127c-1.059,1.259-14.758,23.687-23.905,23.687c0,0-0.013,0.008-0.013,0.015
					c-1.758-0.623-3.094-1.248-3.888-1.781c-1.085-0.725-1.666-1.232-1.666-1.232s5.559-11.946,6.053-13.749
					c0.261-0.933,0.056-4.454-0.212-7.703c-0.253-3.021-0.561-5.811-0.614-6.076c-0.107-0.542-4.732-5.347-5.029-9.254
					c-0.046-0.575,0.097-1.449,0.371-2.52c-1.886,1.331-3.675,2.611-4.515,3.232c-0.947,0.692-3.463,2.705-6.191,4.721
					c-3.583,2.646-7.532,5.302-8.763,4.98c-4.819-1.273-26.101-4.119-26.759-4.183c-0.655-0.063-1.973-6.267-0.399-6.935
					c1.574-0.668,22.61,2.435,25.871,0.952c2.334-1.059,10.361-7.57,14.691-11.144c1.195-0.987,2.111-1.751,2.544-2.111
					c1.239-1.029,5.198-5.45,9.199-8.467c0.361-0.272,0.724-0.532,1.083-0.777l4.648-1.892c3.737-2.213,9.467-4.849,13.45-3.17
					c4.927,2.079,10.734,6.233,13.327,8.817c0.758,0.754,1.239,1.376,1.346,1.772c0,0.001,0,0.001,0,0.003
					c0.125,0.48-0.113,2.038-0.548,4.08c-1.139,5.375-3.624,14.087-4.3,15.187c-0.901,1.473-3.025,14.325-3.371,16.727l1.955,1.411
					l0.681,0.491l0.392,0.284c0.394,2.044,1.799,4.21,2.293,6.459c0.863,3.938,7.174,9.714,7.174,9.714
					c-10.227,5.919-22.582,5.766-31.512,4.085c-0.328-0.061-0.65-0.124-0.967-0.19c-1.625-0.333-3.122-0.716-4.453-1.115
					c-0.481-0.351-0.781-0.601-0.704-0.632c0.299-0.118,17.384-22.764,18.446-24.023c1.152-1.372,3.396-4.662,3.494-6.79
					c0.049-1.048,0.302-5.719,0.571-10.457c0.236-4.178,1.103-9.975,1.103-9.975c0.259-2.097,0.568-7.032,5.201-7.401"/>
				<g>
					<path style="fill:#F1B99E;" d="M262.375,142.942c-3.32,11.043-11.023,17.998-13.629,18.773
						c-2.606,0.771-2.608-12.702-0.855-14.739c0.463-0.543,0.699-1.423,0.794-2.422c0.179-1.888-0.154-4.198-0.376-5.435
						c-0.097-0.548-0.172-0.889-0.172-0.889s10.629-13.276,10.604-5.141C258.712,141.222,262.375,142.942,262.375,142.942z"/>
				</g>
				<g>
					<path style="fill:#C48A6F;" d="M255.331,137.854c-0.044,0.079-2.808,5.077-6.353,6.385c0.161-1.688-0.141-3.752-0.338-4.858
						L255.331,137.854z"/>
				</g>
				<g>
					<path style="fill:#F1B99E;" d="M240.481,113.956c0,0-1.935,13.527,0.84,20.299c4.451,10.867,8.139,8.271,13.117,4.418
						c7.192-5.561,2.662-24.411,2.662-24.411L240.481,113.956z"/>
				</g>
				<g>
					<path style="fill:#0E538C;" d="M238.04,124.681c0,0,3.496,5.091,10.325,2.638c6.777-2.435,6.939,8.842,8.313,9.508
						c1.377,0.668,5.352-14.795,2.808-19.111s-7.527-9.968-14.143-7.406C238.104,113.116,236.046,118.489,238.04,124.681z"/>
				</g>
				<g>
					<path style="fill:#EEA886;" d="M252.966,128.829c-0.228-1.796,2.641-3.092,3.322-1.617c0.681,1.473-0.527,6.02-1.986,5.203
						C252.841,131.601,252.966,128.829,252.966,128.829z"/>
				</g>
				<g>
					<path style="fill-rule:evenodd;clip-rule:evenodd;fill:#FFBE55;" d="M143.384,234.579c2.964-0.017,10.565-0.523,11.052,3.056
						l5.984-0.04c1.868-3.382-7.55-4.425-9.301-4.638l0.919-1.78c-2.242,0.233-4.08,0.499-5.475,0.848
						C145.65,232.941,144.598,233.802,143.384,234.579z"/>
					<path style="fill-rule:evenodd;clip-rule:evenodd;fill:#FFBE55;" d="M180.163,232.013c0.09,0.645,0.197,1.266,0.322,1.842
						c2.821,0.847,4.044,2.232,4.397,3.378c1.994,0.093,4.328,0.115,4.894-0.243c1.026-0.645,0.919-4.205-5.147-5.523
						c0.264-1.877,0.857-6.403,0.857-6.403c-1.09,1.541-2.544,2.94-4.466,4.014C180.75,230.091,180.465,231.077,180.163,232.013z"/>
					<path style="fill-rule:evenodd;clip-rule:evenodd;fill:#FCD2B1;" d="M200.135,189.867c-2.416,3.008-8.541,5.006-11.842,5.899
						c0,0,1.94,11.442,2.554,15.287c0.363,2.287,0.256,7.927-2.9,12.387c-1.09,1.542-2.542,2.941-4.466,4.013
						c-0.269,1.013-0.553,2.003-0.855,2.935c-0.179,0.558-0.366,1.097-0.555,1.61c0.307,0.073,0.602,0.151,0.878,0.234
						c2.818,0.846,4.044,2.232,4.397,3.377c0.269,0.868,0.038,1.6-0.374,1.858c-1.031,0.65-7.942,0.043-7.942,0.043
						c-1.208-1.171-1.745-4.686-1.979-8.094c-0.2,0.024-0.404,0.047-0.612,0.065c-2.088,0.184-4.085,0.344-5.984,0.489
						c-2.142,0.162-4.164,0.305-6.053,0.436h-0.005c-0.033,0.005-0.067,0.005-0.1,0.009c-3.711,0.26-6.918,0.488-9.562,0.76
						c-1.346,0.139-2.544,0.291-3.588,0.467c-0.699,0.115-1.328,0.242-1.886,0.381c-0.914,0.916-1.966,1.776-3.179,2.553
						c2.961-0.017,10.563-0.523,11.052,3.057c0.023,0.182,0.031,0.378,0.018,0.582c0,0-7.415,0.15-13.854-0.041
						c-1.006-0.03-1.991-0.067-2.92-0.115c0,0-0.415-0.087-0.901-0.34c-0.87-0.452-1.978-1.431-1.387-3.395
						c-5.748-4.411-4-10.043-4-10.043s-0.33-1.305,0.886-3.11c0.077-0.112,0.159-0.226,0.248-0.343
						c0.589-0.772,1.459-1.621,2.751-2.486c2.083-1.397,5.252-2.846,10.069-4.099c1.38-0.359,2.705-0.715,3.98-1.07
						c2.014-0.559,3.906-1.118,5.667-1.698c1.367-0.444,2.657-0.903,3.872-1.379c1.72-0.674,3.286-1.384,4.702-2.156
						c4.407-2.399,7.322-5.372,8.702-9.599c1.211,2.2,2.027,3.791,3.087,3.997c1.482,0.288,6.12-4.889,3.916-10.895
						c-1.533-4.183-2.897-5.797-3.57-6.872c0,0,0.873-1.417,1.241-1.93c0.253-0.35,0.589-0.768,1.008-1.189
						c1.044-1.044,2.605-2.102,4.679-2.161c0.281-0.01,0.553-0.012,0.816-0.01c0.141,0,0.274,0.003,0.41,0.006
						c2.79,0.073,4.732,0.656,5.365,0.871c0.732-0.673,1.574-1.372,2.472-1.991c1.723-1.183,3.657-2.056,5.447-1.832l2.367,1.14
						C204.713,180.09,202.996,186.302,200.135,189.867z"/>
					<path style="fill:#FFBE55;" d="M137.974,218.344c-1.292,0.865-2.163,1.714-2.751,2.486c-0.09,0.117-0.171,0.231-0.248,0.343
						c-1.011-1.312-3.194-4.194-3.358-4.47c-0.988-1.687-1.807-3.502-2.296-5.418c-0.481-1.887-0.886-4.626-0.2-6.439
						c0.113-0.302,0.34-0.544,0.632-0.63c0.627-0.182,1.09,0.412,1.308,0.995c0.77,2.057,1.021,4.21,1.735,6.277
						C133.776,214.323,135.765,216.535,137.974,218.344z"/>
					<path style="fill:#0B4870;" d="M202.203,177.478L202.203,177.478c-0.197-0.301-0.376-0.567-0.525-0.795
						c-1.042-1.619-1.81-0.658-1.81-0.658s-0.338,0.326-0.824,0.795l0,0C199.044,176.819,199.226,179.975,202.203,177.478z"/>
					<g>
						<path style="fill-rule:evenodd;clip-rule:evenodd;fill:#262525;" d="M185.057,184.434c0.389,0.227,0.909,0.063,1.157-0.365
							c0.253-0.43,0.143-0.961-0.246-1.188c-0.387-0.228-0.906-0.064-1.159,0.365C184.561,183.675,184.671,184.207,185.057,184.434z
							"/>
						<path style="fill:#0E538C;" d="M185.438,184.553c-0.136,0-0.271-0.035-0.389-0.105c-0.394-0.231-0.509-0.775-0.253-1.212
							c0.256-0.436,0.786-0.604,1.182-0.37c0.192,0.112,0.323,0.3,0.371,0.528c0.046,0.23,0.005,0.472-0.118,0.682
							c-0.125,0.212-0.317,0.367-0.54,0.437C185.607,184.541,185.523,184.553,185.438,184.553z"/>
					</g>
					<path style="fill:#FFBE55;" d="M166.018,218.366c-4.092,2.631-7.361,2.12-9.931,0c-2.567-2.124-1.167-4.084-3.035-4.589
						c-0.417-0.113-0.76-0.327-1.029-0.602c5.787-1.606,10.54-3.215,14.241-5.232C167.082,209.834,169.475,216.14,166.018,218.366z"
						/>
					
						<rect x="179.501" y="189.115" transform="matrix(0.1175 -0.9931 0.9931 0.1175 -35.486 354.7407)" style="fill:#2A94F4;" width="4.681" height="16.442"/>
					<path style="fill:#FFBE55;" d="M179.086,182.52c0.345,0.074,0.676,0.234,0.983,0.497c2.426,2.089,3.322,5.643,3.399,8.934
						c0.085,3.496-0.617,7.972-2.557,11.112c-0.76,1.234-1.449,2.263-2.71,1.563c-0.842-0.465-1.479-1.242-2.28-1.76
						c-1.298-0.836-2.557-2.152-2.516-3.907c0.049-2.146,0.266-4.31,0.233-6.479c-0.031-2.126-0.225-5,0.875-7.018
						C175.375,183.878,177.392,182.164,179.086,182.52z"/>
				</g>
				<g>
					<path style="fill:#0B4870;" d="M279.382,160.863c-0.036,0.693-0.118,1.291-0.215,1.733c-0.507,2.286-1.106,7.303-1.577,10.414
						c-0.497,3.268-1.728,11.214-2.483,13.204c-0.187,0.486-1.915,2.318-4.423,4.812c-6.34,6.306-17.663,16.841-21.653,20.542
						c-0.911,0.845-1.441,1.333-1.441,1.333s-0.274-0.175-0.694-0.444c-0.842-0.538-2.257-1.462-3.161-2.106
						c-0.044-0.031-0.084-0.061-0.125-0.088c-0.481-0.351-0.781-0.601-0.704-0.632c0.299-0.118,17.384-22.764,18.446-24.023
						c1.152-1.372,2.222-4.662,2.319-6.79c0.049-1.048,0.302-5.719,0.571-10.457c0.238-4.178,1.103-9.975,1.103-9.975
						c0.261-2.097,1.743-7.032,6.376-7.401c0.722-0.06,1.546-0.007,2.493,0.185c0.246,0.049,0.481,0.112,0.706,0.187
						C278.847,152.671,279.554,157.733,279.382,160.863z"/>
				</g>
				<path style="fill:#0B4870;" d="M246.898,214.183"/>
				<g>
					<path style="fill:#0E538C;" d="M265.612,180.375c-0.09,2.024-2.224,5.15-3.32,6.452c-1.006,1.197-17.248,22.723-17.53,22.835
						c-0.074,0.029,0.21,0.268,0.668,0.601c-0.64-0.193-1.241-0.389-1.797-0.585c0-0.008,0.148,0.13,0.154,0.127
						c0.284-0.112,16.38-21.78,17.389-22.977c1.095-1.303,3.227-4.428,3.322-6.452c0.046-0.996,0.286-5.437,0.542-9.939
						c0.223-3.971,1.049-9.481,1.049-9.481c0.264-2.15,0.586-7.438,6.058-7.035c-4.405,0.35-4.699,5.04-4.942,7.035"/>
				</g>
			</g>
			<g>
				<g>
					<path style="opacity:0.5;fill:#D3D3D3;" d="M370.838,181.61c-0.704-1.95-2.053-3.594-3.007-5.434
						c-0.957-1.842-1.492-4.135-0.489-5.949c0.939-1.698,3.033-2.632,3.637-4.475c0.655-1.999-0.722-4.023-1.866-5.788
						c-1.142-1.766-2.073-4.217-0.722-5.828c0.456-0.543,1.106-0.887,1.589-1.406c1.725-1.852,0.63-4.826-0.54-7.068
						c0,0-0.512-1.528-2.145-1.692c-1.569-0.48-2.631,0.732-2.631,0.732c-1.945,1.615-4.103,3.938-3.23,6.312
						c0.246,0.664,0.717,1.234,0.926,1.911c0.622,2.008-1.185,3.908-2.92,5.096c-1.735,1.186-3.788,2.522-3.957,4.617
						c-0.156,1.932,1.418,3.605,1.625,5.532c0.225,2.063-1.157,3.971-2.749,5.301c-1.592,1.327-3.473,2.321-4.876,3.848
						c-1.403,1.529-2.242,3.874-1.236,5.688c0.699,1.259,2.163,2.053,2.554,3.439c0.671,2.366-1.553,3.599-2.262,5.453
						c-0.745,1.943,0.468,4.142,1.809,5.603c3.583,3.906,7.54,4.673,12.06,1.583c3.872-2.648,1.359-6.643,3.688-9.565
						c0.896-1.126,2.554-1.291,3.683-2.184C371.409,186.049,371.545,183.562,370.838,181.61z"/>
					<path style="fill:#FFFFFF;" d="M366.551,148.019c-0.752,2.152-1.382,4.341-1.873,6.562c-0.253,1.11-0.494,2.218-0.555,3.331
						c-0.059,1.097,0.077,2.237,0.187,3.364c0.256,2.259,0.363,4.63-0.128,6.934c-0.246,1.149-0.624,2.293-1.264,3.334
						c-0.161,0.261-0.338,0.511-0.533,0.751c-0.184,0.229-0.443,0.481-0.594,0.659c-0.361,0.369-0.645,0.829-0.919,1.286
						c-1.011,1.898-1.505,4.139-1.387,6.264c0.044,0.526,0.105,1.055,0.248,1.545c0.059,0.252,0.148,0.488,0.248,0.717l0.159,0.39
						c0.061,0.145,0.123,0.289,0.174,0.435c0.392,1.171,0.586,2.387,0.553,3.607c-0.049,1.214-0.279,2.452-0.87,3.567
						c-0.276,0.562-0.678,1.067-1.121,1.515c-0.246,0.203-0.471,0.43-0.75,0.585l-0.699,0.438c-0.804,0.551-1.2,1.605-1.298,2.686
						c-0.12,1.089,0.003,2.229,0.238,3.335v0.003c0.008,0.038-0.015,0.074-0.051,0.081c-0.033,0.008-0.064-0.01-0.079-0.041
						c-0.44-1.068-0.686-2.214-0.727-3.404c-0.013-0.595,0.079-1.204,0.269-1.801c0.182-0.602,0.571-1.157,1.055-1.597l0.704-0.543
						c0.212-0.138,0.379-0.335,0.563-0.505c0.328-0.385,0.624-0.8,0.819-1.28c0.433-0.932,0.596-2,0.589-3.057
						c0.015-1.06-0.179-2.129-0.525-3.112l-0.299-0.763c-0.12-0.3-0.223-0.6-0.289-0.906c-0.161-0.608-0.217-1.222-0.253-1.831
						c-0.036-2.431,0.584-4.789,1.789-6.872c0.328-0.509,0.663-1.019,1.113-1.458c0.228-0.244,0.386-0.386,0.566-0.594
						c0.174-0.197,0.33-0.408,0.476-0.63c0.586-0.888,0.973-1.927,1.236-2.998c0.253-1.075,0.389-2.186,0.427-3.303
						c0.041-1.115-0.038-2.241-0.118-3.381c-0.064-1.141-0.159-2.284-0.054-3.463c0.115-1.166,0.41-2.284,0.706-3.386
						c0.581-2.211,1.3-4.387,2.14-6.511c0.015-0.035,0.054-0.051,0.09-0.037C366.546,147.949,366.561,147.984,366.551,148.019z"/>
				</g>
				<g>
					<path style="opacity:0.5;fill:#D3D3D3;" d="M318.905,181.61c0.704-1.95,2.053-3.594,3.007-5.434
						c0.957-1.842,1.492-4.135,0.491-5.949c-0.939-1.698-3.036-2.632-3.64-4.475c-0.655-1.999,0.722-4.023,1.866-5.788
						c1.142-1.766,2.073-4.217,0.724-5.828c-0.456-0.543-1.108-0.887-1.592-1.406c-1.722-1.852-0.63-4.826,0.54-7.068
						c0,0,0.512-1.528,2.145-1.692c1.569-0.48,2.634,0.732,2.634,0.732c1.945,1.615,4.1,3.938,3.227,6.312
						c-0.246,0.664-0.714,1.234-0.924,1.911c-0.624,2.008,1.185,3.908,2.92,5.096c1.735,1.186,3.788,2.522,3.957,4.617
						c0.156,1.932-1.418,3.605-1.628,5.532c-0.223,2.063,1.157,3.971,2.749,5.301c1.592,1.327,3.473,2.321,4.876,3.848
						c1.405,1.529,2.242,3.874,1.236,5.688c-0.699,1.259-2.16,2.053-2.554,3.439c-0.671,2.366,1.556,3.599,2.263,5.453
						c0.745,1.943-0.469,4.142-1.807,5.603c-3.586,3.906-7.54,4.673-12.063,1.583c-3.872-2.648-1.359-6.643-3.688-9.565
						c-0.896-1.126-2.554-1.291-3.683-2.184C318.334,186.049,318.201,183.562,318.905,181.61z"/>
					<path style="fill:#FFFFFF;" d="M323.192,148.019c0.755,2.152,1.385,4.341,1.876,6.562c0.251,1.11,0.491,2.218,0.555,3.331
						c0.056,1.097-0.079,2.237-0.189,3.364c-0.256,2.259-0.363,4.63,0.128,6.934c0.246,1.149,0.625,2.293,1.264,3.334
						c0.161,0.261,0.338,0.511,0.535,0.751c0.184,0.229,0.44,0.481,0.591,0.659c0.361,0.369,0.645,0.829,0.921,1.286
						c1.008,1.898,1.505,4.139,1.387,6.264c-0.046,0.526-0.105,1.055-0.251,1.545c-0.059,0.252-0.148,0.488-0.246,0.717l-0.161,0.39
						c-0.061,0.145-0.123,0.289-0.172,0.435c-0.394,1.171-0.589,2.387-0.555,3.607c0.051,1.214,0.282,2.452,0.87,3.567
						c0.276,0.562,0.678,1.067,1.123,1.515c0.246,0.203,0.468,0.43,0.75,0.585l0.696,0.438c0.804,0.551,1.2,1.605,1.298,2.686
						c0.12,1.089-0.003,2.229-0.235,3.335l-0.003,0.003c-0.008,0.038,0.015,0.074,0.051,0.081c0.033,0.008,0.066-0.01,0.079-0.041
						c0.44-1.068,0.686-2.214,0.727-3.404c0.013-0.595-0.079-1.204-0.269-1.801c-0.182-0.602-0.571-1.157-1.055-1.597l-0.701-0.543
						c-0.215-0.138-0.381-0.335-0.563-0.505c-0.33-0.385-0.627-0.8-0.822-1.28c-0.432-0.932-0.594-2-0.589-3.057
						c-0.015-1.06,0.179-2.129,0.525-3.112l0.299-0.763c0.12-0.3,0.223-0.6,0.289-0.906c0.161-0.608,0.217-1.222,0.256-1.831
						c0.033-2.431-0.586-4.789-1.791-6.872c-0.328-0.509-0.663-1.019-1.111-1.458c-0.23-0.244-0.386-0.386-0.568-0.594
						c-0.172-0.197-0.33-0.408-0.476-0.63c-0.586-0.888-0.973-1.927-1.234-2.998c-0.253-1.075-0.392-2.186-0.428-3.303
						c-0.043-1.115,0.036-2.241,0.115-3.381c0.064-1.141,0.159-2.284,0.054-3.463c-0.115-1.166-0.407-2.284-0.704-3.386
						c-0.581-2.211-1.303-4.387-2.142-6.511c-0.013-0.035-0.054-0.051-0.087-0.037C323.197,147.949,323.182,147.984,323.192,148.019
						z"/>
				</g>
				<path style="fill:#F2F2F2;" d="M359.098,174.34c-1.421-2.344-3.596-4.123-5.316-6.259c-1.717-2.135-3.008-4.969-2.181-7.582
					c0.773-2.444,3.248-4.201,3.547-6.748c0.328-2.759-1.983-5.024-3.923-7.014c-1.94-1.99-3.788-4.923-2.457-7.364
					c0.448-0.823,1.206-1.436,1.697-2.236c1.748-2.847-0.443-6.419-2.541-9.018c0,0-1.062-1.849-3.22-1.636
					c-2.158-0.213-3.22,1.636-3.22,1.636c-2.101,2.6-4.292,6.171-2.542,9.018c0.491,0.799,1.246,1.413,1.697,2.236
					c1.328,2.44-0.517,5.374-2.457,7.364c-1.94,1.99-4.251,4.255-3.926,7.014c0.302,2.547,2.777,4.304,3.55,6.748
					c0.827,2.613-0.463,5.448-2.183,7.582c-1.717,2.136-3.895,3.915-5.316,6.259c-1.421,2.344-1.897,5.603-0.12,7.692
					c1.234,1.45,3.335,2.097,4.205,3.791c1.484,2.893-1.075,5.068-1.51,7.656c-0.461,2.712,1.687,5.245,3.801,6.789
					c5.664,4.127,10.99,4.091,16.045-1.093c4.328-4.438,0.031-8.959,2.286-13.354c0.87-1.692,2.974-2.339,4.205-3.789
					C360.995,179.943,360.518,176.684,359.098,174.34z"/>
				<rect x="322.992" y="199.592" style="fill:#4AACEA;" width="43.423" height="5.837"/>
				<path style="fill:#FFFFFF;" d="M343.335,198.461c-0.85-1.272,0,0-0.363-1.532c-0.172-0.769-0.21-1.582-0.12-2.402
					c0.079-0.827,0.438-1.651,0.95-2.346l0.77-0.886c0.241-0.235,0.404-0.534,0.599-0.801c0.325-0.585,0.602-1.202,0.729-1.872
					c0.317-1.321,0.251-2.747-0.033-4.116c-0.259-1.378-0.788-2.713-1.492-3.897l-0.586-0.911c-0.233-0.356-0.445-0.719-0.612-1.097
					c-0.368-0.749-0.599-1.529-0.806-2.307c-0.678-3.14-0.486-6.359,0.532-9.373c0.289-0.745,0.591-1.492,1.06-2.177
					c0.233-0.376,0.399-0.603,0.581-0.919c0.169-0.301,0.323-0.613,0.453-0.939c0.53-1.304,0.758-2.751,0.816-4.206
					c0.049-1.459-0.061-2.936-0.305-4.392c-0.236-1.455-0.635-2.895-1.031-4.35c-0.379-1.463-0.799-2.919-0.97-4.475
					c-0.156-1.54-0.067-3.067,0.028-4.57c0.179-3.018,0.545-6.026,1.08-8.995c0.01-0.05,0.056-0.082,0.105-0.074
					c0.046,0.009,0.079,0.054,0.072,0.101c-0.415,2.984-0.66,5.984-0.719,8.991c-0.036,1.503-0.059,3.005,0.146,4.461
					c0.215,1.437,0.686,2.879,1.121,4.311c0.921,2.86,1.679,5.906,1.641,9.018c-0.018,1.554-0.21,3.134-0.77,4.651
					c-0.138,0.379-0.302,0.747-0.494,1.109c-0.179,0.347-0.448,0.738-0.596,1.01c-0.371,0.573-0.619,1.245-0.857,1.907
					c-0.816,2.723-0.873,5.756-0.166,8.478c0.195,0.672,0.41,1.339,0.724,1.938c0.143,0.312,0.32,0.594,0.507,0.865l0.312,0.465
					c0.115,0.17,0.233,0.34,0.335,0.518c0.814,1.415,1.382,2.937,1.659,4.529c0.251,1.589,0.274,3.25-0.2,4.849
					c-0.212,0.801-0.602,1.559-1.06,2.256c-0.266,0.329-0.496,0.681-0.819,0.953l-0.791,0.749c-0.896,0.925-1.136,2.393-0.98,3.82
					c0.128,1.442,0.514-0.64,1.106,0.731"/>
				<polygon style="fill:#2A94F4;" points="357.15,230.614 332.257,230.614 327.126,205.429 362.279,205.429 				"/>
			</g>
		</g>
	</g>
</g>
</svg>
